<svg xmlns="http://www.w3.org/2000/svg" width="109" height="109" viewBox="0 0 109 109">
<g id="StrokePaths_055a7-Kaisho" style="fill:none;stroke:#000000;stroke-width:3;stroke-linecap:round;stroke-linejoin:round;">
<g id="055a7-Kaisho" element="喧">
	<g id="055a7-Kaisho-g1" element="口" position="left" radical="general">
		<path id="055a7-Kaisho-s1" type="㇑" d="M11.75,29.79c0.29,0.54,0.59,0.99,0.72,1.67c1.02,5.36,2.23,20.16,2.93,29.79"/>
		<path id="055a7-Kaisho-s2" type="㇕b" d="M13.08,31.72c9.67-1.72,13.55-2.06,17.92-2.73c1.6-0.24,2.56,1.44,2.33,2.87c-0.95,5.92-2.05,16.07-3.46,24.25"/>
		<path id="055a7-Kaisho-s3" type="㇐b" d="M15.57,58.05c5.14-0.75,9.68-1.05,16.89-1.71"/>
	</g>
	<g id="055a7-Kaisho-g2" element="宣" position="right">
		<g id="055a7-Kaisho-g3" element="宀" position="top">
			<path id="055a7-Kaisho-s4" type="㇔" d="M62.39,12.75c2.99,1.19,6.53,6.53,6.9,9.93"/>
			<g id="055a7-Kaisho-g4" element="冖">
				<path id="055a7-Kaisho-s5" type="㇔" d="M43.77,28.62c0,3.26-2.33,12.24-3.38,14.41"/>
				<path id="055a7-Kaisho-s6" type="㇖b" d="M44.76,30.59C58.87,28.87,71.87,27.62,90.07,26.4C99.21,25.79,91.37,32.52,89.26,34.33"/>
			</g>
		</g>
		<g id="055a7-Kaisho-g5" element="亘" position="bottom">
			<g id="055a7-Kaisho-g6" element="二" part="1" position="top">
				<g id="055a7-Kaisho-g7" element="一">
					<path id="055a7-Kaisho-s7" type="㇐" d="M49.53,43.32c0.66,0.33,1.87,0.35,2.53,0.33c5.19-0.15,23.63-3.11,28.46-2.98c1.1,0.03,1.76,0.16,2.31,0.32"/>
				</g>
			</g>
			<g id="055a7-Kaisho-g8" element="旦" position="bottom">
				<g id="055a7-Kaisho-g9" element="日" position="top">
					<path id="055a7-Kaisho-s8" type="㇑" d="M51.47,53.09c0.45,0.68,1.21,1.81,1.21,2.72c0.65,7.39,1.38,16.86,2.16,24.34"/>
					<path id="055a7-Kaisho-s9" type="㇕a" d="M52.84,55.02c4.87-0.65,25.78-2.67,28.12-2.8c1.95-0.11,2.62,1.17,2.46,3.11c-0.47,6.52-1.46,16.72-2.4,22.91"/>
					<path id="055a7-Kaisho-s10" type="㇐a" d="M53.88,65.87c4.92-0.61,9.88-0.89,14.82-1.26c1.49-0.11,2.97-0.22,4.39-0.32"/>
					<path id="055a7-Kaisho-s11" type="㇐a" d="M54.97,77.29c7.28-0.54,17.28-1.54,26.09-1.62"/>
				</g>
				<g id="055a7-Kaisho-g10" element="二" part="2" position="bottom">
					<g id="055a7-Kaisho-g11" element="一">
						<path id="055a7-Kaisho-s12" type="㇐" d="M40.53,89.09c1.09,0.29,3.07,0.31,4.16,0.29c9.58-0.15,37.42-2.18,48.63-2.17c1.81,0,2.89,0.14,3.8,0.28"/>
					</g>
				</g>
			</g>
		</g>
	</g>
</g>
</g>

</svg>