<svg xmlns="http://www.w3.org/2000/svg" width="109" height="109" viewBox="0 0 109 109">
<g id="StrokePaths_05de8-HzFst" style="fill:none;stroke:#000000;stroke-width:3;stroke-linecap:round;stroke-linejoin:round;">
<g id="05de8-HzFst" element="巨">
	<g id="05de8-HzFst-g1" element="匚" part="1" variant="true" radical="nelson">
		<g id="05de8-HzFst-g2" element="匚" part="1" variant="true" original="工" radical="tradit">
			<path id="05de8-HzFst-s1" type="㇐" d="M27.1,22.11c6.73-0.68,37.92-3.69,53.56-4.36c2.37-0.1,3.79-0.22,4.98,0.03"/>
		</g>
	</g>
	<g id="05de8-HzFst-g3" element="匚" part="1" variant="true" radical="nelson">
		<g id="05de8-HzFst-g4" element="匚" part="1" original="工" radical="tradit">
			<path id="05de8-HzFst-s2" type="㇑" d="M25.04,19.84c1.02,0.46,1.63,2.05,1.84,2.97c0.2,0.91,0,62.48-0.2,68.19"/>
		</g>
	</g>
	<path id="05de8-HzFst-s3" type="㇕" d="M27.5,45.04c16.11-1.68,36.82-3.92,48-5.07c4.53-0.47,4.99,1.28,4.16,4.88c-1.04,4.48-2.82,11.85-3.98,17.21"/>
	<path id="05de8-HzFst-s4" type="㇐" d="M27.07,67.08c6.73-0.68,44.62-4.42,50.95-4.83"/>
	<g id="05de8-HzFst-g5" element="匚" part="2" original="工" radical="tradit">
		<g id="05de8-HzFst-g6" element="匚" part="2" variant="true" radical="nelson">
			<path id="05de8-HzFst-s5" type="㇐" d="M27.1,90.61c6.73-0.68,40.11-2.73,55.75-3.4c2.37-0.1,3.79-0.22,4.98,0.03"/>
		</g>
	</g>
</g>
</g>

</svg>