<svg xmlns="http://www.w3.org/2000/svg" width="109" height="109" viewBox="0 0 109 109">
<g id="StrokePaths_06062-Hyougai" style="fill:none;stroke:#000000;stroke-width:3;stroke-linecap:round;stroke-linejoin:round;">
<g id="06062-Hyougai" element="恢">
	<g id="06062-Hyougai-g1" element="忄" variant="true" original="心" position="left" radical="general">
		<path id="06062-Hyougai-s1" type="㇔" d="M16.25,40.25c0,6.61-2.72,15.86-3.5,17.75"/>
		<path id="06062-Hyougai-s2" type="㇔" d="M29.52,34.83c2.66,1.74,5.98,6.79,7.04,9.88"/>
		<path id="06062-Hyougai-s3" type="㇑" d="M24.62,15.5c0.88,0.88,1.21,2.25,1.21,3.75c0,0.82,0.02,43.5,0.03,65c0,5.46,0,9.55,0,11.25"/>
	</g>
	<g id="06062-Hyougai-g2" element="灰" position="right">
		<g id="06062-Hyougai-g3" element="厂" position="tare">
			<path id="06062-Hyougai-s4" type="㇐" d="M42.81,23.9c3.07,0.75,6.1,0.38,9.31-0.08C64,22.12,73.12,21.5,83.87,20.44c2.64-0.26,5.25-0.21,7.85,0.29"/>
			<path id="06062-Hyougai-s5" type="㇒" d="M45.79,24.73c0.93,0.93,1.26,2.16,1.18,4.38C46.38,45.75,45.5,67.5,34.06,86.97"/>
		</g>
		<g id="06062-Hyougai-g4" element="火" position="tarec">
			<path id="06062-Hyougai-s6" type="㇔" d="M53.9,51.12c1.55,2.59,3.55,9.67,3.98,12.26"/>
			<path id="06062-Hyougai-s7" type="㇒" d="M88.45,47.54c0.17,1.21-0.36,2.26-1.13,3.1c-2.7,2.98-5.83,6.23-9.86,9.52"/>
			<path id="06062-Hyougai-s8" type="㇒" d="M68.76,34.25C69.69,35.18,70,37.1,70,38.07c0,31.55-8.25,45.55-24.32,54.43"/>
			<path id="06062-Hyougai-s9" type="㇏" d="M69.5,60C76,70.5,81.66,78.61,87.09,84.77c2.56,2.94,5.36,5.14,8.91,6.59"/>
		</g>
	</g>
</g>
</g>

</svg>