<svg xmlns="http://www.w3.org/2000/svg" width="109" height="109" viewBox="0 0 109 109">
<g id="StrokePaths_067f3-Kaisho" style="fill:none;stroke:#000000;stroke-width:3;stroke-linecap:round;stroke-linejoin:round;">
<g id="067f3-Kaisho" element="柳">
	<g id="067f3-Kaisho-g1" element="木" position="left" radical="general">
		<path id="067f3-Kaisho-s1" type="㇐" d="M13.03,37.47c0.35,0.24,2.39,0.41,3.31,0.31c3.94-0.41,14.12-3.21,20.45-4.41c0.92-0.17,2.15-0.24,2.73,0"/>
		<path id="067f3-Kaisho-s2" type="㇚" d="M27.11,16.25c0.91,0.47,2.86,3.49,3.04,4.42c0.18,0.93-0.3,68.73-0.3,69.58c0,14-5.6,3.25-6.6,2.25"/>
		<path id="067f3-Kaisho-s3" type="㇒" d="M29.69,37.03c-5.1,15.04-7.94,21.4-15.83,34.56"/>
		<path id="067f3-Kaisho-s4" type="㇔/㇏" d="M32.22,45.65c2.44,1.23,6.47,5.22,8.53,7.6"/>
	</g>
	<g id="067f3-Kaisho-g2" element="卯" position="right">
		<g id="067f3-Kaisho-g3" position="left">
			<path id="067f3-Kaisho-s5" type="㇒" d="M58.49,13.75c0.03,0.3,0.12,0.85-0.06,1.19c-2.31,4.17-5.72,7.99-11.73,11.36"/>
			<path id="067f3-Kaisho-s6" type="㇙" d="M45.37,28.26c0.59,0.46,1.44,2.57,1.56,3.49c0.12,0.92-0.25,29.44-0.38,31.72c-0.12,2.07,0.35,0.92-0.35,3.22c-0.71,2.3-0.71,2.76,0.71,1.15c1.42-1.61,9.1-7.58,14.29-11.33"/>
			<g id="067f3-Kaisho-g4" element="丿">
				<path id="067f3-Kaisho-s7" type="㇒" d="M60.42,25.68c0.81,0.91,1.48,4.73,1.48,7.05c0,18.14,2.35,51.53-15.62,62.18"/>
			</g>
		</g>
		<g id="067f3-Kaisho-g5" element="卩" position="right">
			<path id="067f3-Kaisho-s8" type="㇆" d="M71.54,22.49c0.65,0.21,1.96,1.5,3.26,1.28c1.3-0.21,12.33-2.64,13.96-2.85c1.63-0.21,4.44,0.83,4.74,3.57c0.75,6.76,0.25,25.76-1.11,39.88c-1.1,11.49-6.56,2.07-7.05,1.64"/>
			<path id="067f3-Kaisho-s9" type="㇑" d="M74.56,24.61c0.15,0.93,0,65.84-0.15,71.64"/>
		</g>
	</g>
</g>
</g>

</svg>