<svg xmlns="http://www.w3.org/2000/svg" width="109" height="109" viewBox="0 0 109 109">
<g id="StrokePaths_0875f-Kaisho" style="fill:none;stroke:#000000;stroke-width:3;stroke-linecap:round;stroke-linejoin:round;">
<g id="0875f-Kaisho" element="蝟">
	<g id="0875f-Kaisho-g1" element="虫" position="left" radical="general">
		<g id="0875f-Kaisho-g2" element="中">
			<g id="0875f-Kaisho-g3" element="口">
				<path id="0875f-Kaisho-s1" type="㇑" d="M13.26,37.4c0.48,0.54,1.08,1.48,1.19,2.19c0.92,6.15,1.98,14.12,3.31,23.3"/>
				<path id="0875f-Kaisho-s2" type="㇕b" d="M15.22,39.48c6.93-0.97,20.11-2.83,25.13-3.2c1.96-0.14,2.86,1.38,2.62,2.83c-0.83,4.98-1.98,10.84-3.33,19.12"/>
				<path id="0875f-Kaisho-s3" type="㇐b" d="M17.76,60.43c5.58-0.98,16.46-1.48,24.26-2.39"/>
			</g>
			<g id="0875f-Kaisho-g4" element="丨">
				<path id="0875f-Kaisho-s4" type="㇑a" d="M25.92,16.75c1.08,1,2.26,2.75,2.26,4.47c0,4.78-0.2,46.28-0.2,59.66"/>
			</g>
		</g>
		<path id="0875f-Kaisho-s5" type="㇀" d="M12.07,87.27c0.6,1.16,2.46,1.11,3.06,0.82c0.6-0.29,23.54-12.15,27.26-14.47"/>
		<path id="0875f-Kaisho-s6" type="㇔" d="M37.5,65.25c2.84,2.76,7.35,11.35,8.06,15.64"/>
	</g>
	<g id="0875f-Kaisho-g5" element="胃" position="right">
		<g id="0875f-Kaisho-g6" element="田" position="top">
			<path id="0875f-Kaisho-s7" type="㇑" d="M49.38,14.5c0.29,0.49,0.63,1.3,0.78,1.91c1.28,5.02,3.94,16.19,4.69,25.53"/>
			<path id="0875f-Kaisho-s8" type="㇕a" d="M50.74,15.65c10.18-1.11,30.46-2.44,38.05-3.38c2.79-0.34,4.36,1.17,4.06,3.85c-0.57,5.03-1.86,12.52-3.24,23.05"/>
			<path id="0875f-Kaisho-s9" type="㇑a" d="M70.19,14.92c0.52,0.4,1.1,2.5,1.1,4.17c0,7.65-0.08,10.46-0.08,18.52"/>
			<path id="0875f-Kaisho-s10" type="㇐a" d="M53.06,27.63c8.55-0.7,17.12-1.29,25.68-1.91c0.99-0.07,1.95-0.14,2.87-0.21"/>
			<path id="0875f-Kaisho-s11" type="㇐a" d="M55.39,39.61c9.61-1.11,24.2-2,34.32-2.73"/>
		</g>
		<g id="0875f-Kaisho-g7" element="月" position="bottom">
			<path id="0875f-Kaisho-s12" type="㇑" d="M56.38,50.47c0.6,0.71,0.99,1.98,1.2,2.7c0.2,0.72,0.35,44.43,0.28,46.06"/>
			<path id="0875f-Kaisho-s13" type="㇆a" d="M57.58,51.19c2.38-0.23,25.36-2.25,27.13-2.49c3.17-0.43,3.97,2.13,3.97,3.36c0,2.75-0.07,25.33-0.07,40.02c0,11.77-6.38,1.74-7.17,0.85"/>
			<path id="0875f-Kaisho-s14" type="㇐a" d="M58.3,63.97c5.09-0.79,9.25-1.19,14.38-1.61c1.4-0.11,2.79-0.22,4.15-0.33"/>
			<path id="0875f-Kaisho-s15" type="㇐a" d="M57.93,76.59c4.87-0.52,9.76-0.93,14.65-1.34c1.45-0.12,2.91-0.24,4.34-0.36"/>
		</g>
	</g>
</g>
</g>

</svg>